<?xml version="1.0" standalone="no"?><!DOCTYPE svg PUBLIC "-//W3C//DTD SVG 1.1//EN" "http://www.w3.org/Graphics/SVG/1.1/DTD/svg11.dtd"><svg t="1485171101035" class="icon" style="" viewBox="0 0 1024 1024" version="1.1" xmlns="http://www.w3.org/2000/svg" p-id="5046" xmlns:xlink="http://www.w3.org/1999/xlink" width="48" height="48"><defs><style type="text/css"></style></defs><path d="M339.2 588.8c-83.2 0-150.4-67.2-150.4-150.4 0-83.2 67.2-150.4 150.4-150.4 83.2 0 150.4 67.2 150.4 150.4C489.6 521.6 422.4 588.8 339.2 588.8zM339.2 323.2c-64 0-118.4 51.2-118.4 118.4 0 64 51.2 118.4 118.4 118.4 64 0 118.4-51.2 118.4-118.4C457.6 374.4 406.4 323.2 339.2 323.2z" p-id="5047"></path><path d="M531.2 828.8c-9.6 0-16-6.4-16-16 0-92.8-73.6-166.4-166.4-166.4-92.8 0-166.4 73.6-166.4 166.4 0 9.6-6.4 16-16 16s-16-6.4-16-16c0-108.8 89.6-198.4 198.4-198.4 108.8 0 198.4 89.6 198.4 198.4C547.2 822.4 537.6 828.8 531.2 828.8z" p-id="5048"></path><path d="M905.6 902.4c-9.6 0-16-6.4-16-16s6.4-16 16-16c44.8 0 83.2-35.2 83.2-83.2L988.8 252.8c0-44.8-35.2-83.2-83.2-83.2L121.6 169.6c-44.8 0-83.2 35.2-83.2 83.2l0 537.6c0 44.8 35.2 83.2 83.2 83.2l457.6 0c9.6 0 16 6.4 16 16s-6.4 16-16 16L121.6 905.6c-64 0-115.2-51.2-115.2-115.2L6.4 252.8c0-64 51.2-115.2 115.2-115.2l784 0c64 0 115.2 51.2 115.2 115.2l0 537.6C1020.8 851.2 969.6 902.4 905.6 902.4z" p-id="5049"></path><path d="M800 403.2l-153.6 0c-9.6 0-16-6.4-16-16s6.4-16 16-16L800 371.2c9.6 0 16 6.4 16 16S809.6 403.2 800 403.2z" p-id="5050"></path><path d="M889.6 588.8l-243.2 0c-9.6 0-16-6.4-16-16s6.4-16 16-16l243.2 0c9.6 0 16 6.4 16 16S896 588.8 889.6 588.8z" p-id="5051"></path><path d="M889.6 700.8l-243.2 0c-9.6 0-16-6.4-16-16s6.4-16 16-16l243.2 0c9.6 0 16 6.4 16 16S896 700.8 889.6 700.8z" p-id="5052"></path></svg>